<svg width="33" height="30" viewBox="0 0 33 30" fill="none" xmlns="http://www.w3.org/2000/svg">
<rect width="32.2642" height="30" rx="12" fill="#0068FF"/>
<path d="M12.8722 10.9801C12.4848 10.9801 12.1465 11.0594 11.8572 11.2181C11.5725 11.3721 11.3322 11.5541 11.1362 11.7641C10.9448 11.9694 10.7978 12.1584 10.6952 12.3311C10.5972 12.4991 10.5435 12.5924 10.5342 12.6111L9.47717 12.1491C9.48651 12.1071 9.53084 12.0067 9.61017 11.8481C9.68951 11.6847 9.81317 11.4957 9.98117 11.2811C10.1492 11.0664 10.3638 10.8564 10.6252 10.6511C10.8865 10.4411 11.2015 10.2684 11.5702 10.1331C11.9435 9.99305 12.3775 9.92305 12.8722 9.92305C13.3762 9.92305 13.8125 9.99305 14.1812 10.1331C14.5498 10.2731 14.8532 10.4691 15.0912 10.7211C15.3292 10.9731 15.5065 11.2717 15.6232 11.6171C15.7398 11.9624 15.7982 12.3381 15.7982 12.7441C15.7982 13.1361 15.7048 13.5374 15.5182 13.9481C15.3315 14.3587 15.0888 14.7624 14.7902 15.1591C14.4915 15.5511 14.1695 15.9221 13.8242 16.2721C13.4835 16.6174 13.1522 16.9301 12.8302 17.2101C12.5128 17.4901 12.2375 17.7211 12.0042 17.9031C11.7755 18.0804 11.6262 18.1971 11.5562 18.2531H15.7212V19.3311H9.68717V18.3441C9.83184 18.2321 10.0488 18.0617 10.3382 17.8331C10.6322 17.5997 10.9635 17.3267 11.3322 17.0141C11.7008 16.7014 12.0742 16.3631 12.4522 15.9991C12.8302 15.6351 13.1802 15.2641 13.5022 14.8861C13.8242 14.5034 14.0832 14.1301 14.2792 13.7661C14.4798 13.3974 14.5802 13.0521 14.5802 12.7301C14.5802 12.0861 14.4308 11.6334 14.1322 11.3721C13.8382 11.1107 13.4182 10.9801 12.8722 10.9801ZM22.0551 10.0911V16.3071H23.1121V17.3851H22.0551V19.3311H20.8511V17.3851H16.9661V16.3911L20.7531 10.0911H22.0551ZM20.8511 16.3071V11.9041H20.8441L18.2331 16.3071H20.8511Z" fill="#F1FFF3"/>
</svg>
