<svg width="26" height="26" viewBox="0 0 26 26" fill="none" xmlns="http://www.w3.org/2000/svg">
<rect width="26" height="26" rx="8" fill="#0E3E3E"/>
<path d="M15.9883 8.85599H18.9232C19.0646 8.85599 19.2047 8.8841 19.3353 8.93873C19.4659 8.99336 19.5846 9.07343 19.6846 9.17437C19.7846 9.27531 19.8639 9.39513 19.918 9.52702C19.9722 9.6589 20 9.80027 20 9.94302V17.9129C20 18.0557 19.9722 18.1971 19.918 18.3289C19.8639 18.4608 19.7846 18.5807 19.6846 18.6816C19.5846 18.7825 19.4659 18.8626 19.3353 18.9172C19.2047 18.9719 19.0646 19 18.9232 19H7.07669C6.79113 19 6.51725 18.8855 6.31533 18.6816C6.1134 18.4777 6 18.2012 6 17.9129V9.94302C6 9.65472 6.1134 9.37823 6.31533 9.17437C6.51725 8.97051 6.79113 8.85599 7.07669 8.85599H10.1655C10.1382 8.79087 10.1382 7.68629 10.1382 7.68629C10.1379 7.59607 10.1552 7.50667 10.1893 7.42325C10.2233 7.33984 10.2734 7.26406 10.3366 7.20027C10.3998 7.13648 10.4749 7.08593 10.5575 7.05155C10.6401 7.01718 10.7286 6.99967 10.818 7H15.3383C15.5186 7 15.6915 7.0723 15.819 7.201C15.9464 7.32971 16.0181 7.50427 16.0181 7.68629C16.0181 7.68629 16.0057 8.79087 15.9883 8.85599Z" stroke="#DFF7E2" stroke-linecap="round" stroke-linejoin="round"/>
</svg>
