<svg width="26" height="26" viewBox="0 0 26 26" fill="none" xmlns="http://www.w3.org/2000/svg">
<rect width="26" height="26" rx="8" fill="#0E3E3E"/>
<path d="M16.6107 13.4591L17.1107 13.4602V13.4591H16.6107ZM13.5012 16.6723L13.4996 17.1723L13.5027 17.1723L13.5012 16.6723ZM10.3893 13.4591H9.88927L9.88928 13.4605L10.3893 13.4591ZM10.3893 9.21084L9.88927 9.20939V9.21084H10.3893ZM13.5012 6L13.5027 5.5L13.5 5.5L13.5012 6ZM16.6107 9.21084H17.1107L17.1107 9.2094L16.6107 9.21084ZM13.5012 19.137L13.4999 19.637L13.5027 19.637L13.5012 19.137ZM10.3893 12.249C10.1131 12.249 9.88929 12.4729 9.88929 12.749C9.88929 13.0252 10.1131 13.249 10.3893 13.249V12.249ZM16.6107 13.249C16.8869 13.249 17.1107 13.0252 17.1107 12.749C17.1107 12.4729 16.8869 12.249 16.6107 12.249V13.249ZM13.9988 16.6723C13.9988 16.3962 13.775 16.1723 13.4988 16.1723C13.2227 16.1723 12.9988 16.3962 12.9988 16.6723H13.9988ZM12.9988 21C12.9988 21.2761 13.2227 21.5 13.4988 21.5C13.775 21.5 13.9988 21.2761 13.9988 21H12.9988ZM16.1107 13.458C16.1092 14.1821 15.8299 14.873 15.3388 15.3805L16.0574 16.076C16.7316 15.3792 17.1086 14.4385 17.1107 13.4602L16.1107 13.458ZM15.3388 15.3805C14.8482 15.8875 14.1866 16.1702 13.4996 16.1723L13.5027 17.1723C14.4645 17.1694 15.3826 16.7732 16.0574 16.076L15.3388 15.3805ZM13.5027 16.1723C12.8155 16.1702 12.1536 15.8875 11.6626 15.3806L10.9443 16.0762C11.6194 16.7734 12.5378 17.1694 13.4996 17.1723L13.5027 16.1723ZM11.6626 15.3806C11.1711 14.873 10.8914 14.182 10.8893 13.4576L9.88928 13.4605C9.8921 14.439 10.2697 15.3796 10.9443 16.0762L11.6626 15.3806ZM10.8893 13.4591V9.21084H9.88927V13.4591H10.8893ZM10.8893 9.21229C10.8914 8.48819 11.1712 7.79748 11.6626 7.29036L10.9446 6.59441C10.2698 7.29063 9.89211 8.23108 9.88928 9.20939L10.8893 9.21229ZM11.6626 7.29036C12.1536 6.78379 12.8154 6.50159 13.5023 6.5L13.5 5.5C12.5383 5.50222 11.6199 5.89764 10.9446 6.59441L11.6626 7.29036ZM13.4996 6.5C14.1863 6.50211 14.8475 6.78456 15.3381 7.29108L16.0564 6.59539C15.3817 5.89871 14.464 5.50297 13.5027 5.5L13.4996 6.5ZM15.3381 7.29108C15.8291 7.79813 16.1086 8.48853 16.1107 9.21229L17.1107 9.2094C17.1079 8.23157 16.7306 7.29154 16.0564 6.59539L15.3381 7.29108ZM16.1107 9.21084V13.4591H17.1107V9.21084H16.1107ZM18.5 13.4577C18.4961 14.8351 17.9642 16.1519 17.0255 17.1213L17.7438 17.8169C18.8657 16.6585 19.4953 15.0921 19.5 13.4605L18.5 13.4577ZM17.0255 17.1213C16.0873 18.09 14.8194 18.633 13.4997 18.637L13.5027 19.637C15.0971 19.6322 16.6215 18.9759 17.7438 17.8169L17.0255 17.1213ZM13.5025 18.637C12.1824 18.6336 10.9139 18.0908 9.97526 17.122L9.25706 17.8178C10.38 18.9769 11.905 19.6329 13.4999 19.637L13.5025 18.637ZM9.97526 17.122C9.03607 16.1526 8.50394 14.8355 8.5 13.4577L7.5 13.4605C7.50467 15.0925 8.13466 16.6594 9.25706 17.8178L9.97526 17.122ZM10.3893 13.249H16.6107V12.249H10.3893V13.249ZM11.338 21.5H15.662V20.5H11.338V21.5ZM12.9988 16.6723V21H13.9988V16.6723H12.9988Z" fill="#DFF7E2"/>
</svg>
