<svg width="30" height="30" viewBox="0 0 30 30" fill="none" xmlns="http://www.w3.org/2000/svg">
<rect width="30" height="30" rx="15" fill="#DFF7E2"/>
<path d="M21.3892 20.4892L21.3954 19.8463H21.3892V20.4892ZM22.0854 18.9694L21.5607 19.3409L21.5693 19.353L21.5784 19.3646L22.0854 18.9694ZM20.4791 15.0976L21.1123 14.9865L21.1109 14.979L20.4791 15.0976ZM19.1012 8.43704L19.6084 8.04199L19.6071 8.04035L19.1012 8.43704ZM15.0003 6.40049L15.0018 5.75762L14.9982 5.75764L15.0003 6.40049ZM10.8994 8.43704L10.3939 8.03987L10.3923 8.042L10.8994 8.43704ZM9.52519 15.0976L8.89328 14.9792L8.892 14.9865L9.52519 15.0976ZM7.91891 18.9694L8.42241 19.3691L8.43337 19.3553L8.44355 19.3409L7.91891 18.9694ZM8.61508 20.4892V19.8462L8.60288 19.8464L8.61508 20.4892ZM14.3611 6.4005C14.3611 6.75554 14.6489 7.04336 15.004 7.04336C15.359 7.04336 15.6468 6.75554 15.6468 6.4005H14.3611ZM15.6468 5.14282C15.6468 4.78778 15.359 4.49997 15.004 4.49997C14.6489 4.49997 14.3611 4.78778 14.3611 5.14282H15.6468ZM15.0003 24L15.0017 23.3571H15.0003L15.0003 24ZM21.383 21.132C21.6805 21.1349 21.9704 21.0487 22.2184 20.8869L21.5157 19.8102C21.4771 19.8353 21.4355 19.8467 21.3954 19.8464L21.383 21.132ZM22.2184 20.8869C22.466 20.7252 22.6605 20.4959 22.7828 20.2289L21.6138 19.6934C21.59 19.7454 21.5546 19.7847 21.5157 19.8102L22.2184 20.8869ZM22.7828 20.2289C22.905 19.9621 22.9514 19.6663 22.9183 19.3753L21.6408 19.5208C21.6477 19.5811 21.6377 19.6413 21.6138 19.6934L22.7828 20.2289ZM22.9183 19.3753C22.8851 19.0843 22.7733 18.8061 22.5923 18.5741L21.5784 19.3646C21.6111 19.4066 21.6339 19.4605 21.6408 19.5208L22.9183 19.3753ZM22.61 18.5979C21.8551 17.5318 21.3421 16.2965 21.1123 14.9865L19.8459 15.2087C20.1081 16.7033 20.6941 18.117 21.5607 19.3409L22.61 18.5979ZM21.1109 14.979C21.0121 14.4525 20.9698 13.9087 20.9405 13.3384C20.9119 12.7822 20.8951 12.1754 20.8439 11.5928C20.7398 10.4079 20.4848 9.16705 19.6084 8.042L18.5941 8.83209C19.2479 9.6714 19.4678 10.621 19.5631 11.7054C19.6117 12.2574 19.6257 12.805 19.6565 13.4044C19.6865 13.9898 19.7322 14.6029 19.8473 15.2162L21.1109 14.979ZM19.6071 8.04035C19.0512 7.3314 18.3506 6.75756 17.5542 6.36205L16.9824 7.51358C17.6038 7.82222 18.1551 8.27233 18.5954 8.83373L19.6071 8.04035ZM17.5542 6.36205C16.7577 5.96647 15.886 5.75965 15.0018 5.75763L14.9989 7.04335C15.6838 7.04491 16.361 7.20502 16.9824 7.51358L17.5542 6.36205ZM14.9982 5.75764C14.1144 5.76054 13.2432 5.96774 12.4469 6.36316L13.0188 7.5147C13.6402 7.20608 14.3174 7.0456 15.0025 7.04334L14.9982 5.75764ZM12.4469 6.36316C11.6508 6.75852 10.9503 7.33173 10.3939 8.03987L11.4049 8.83421C11.8457 8.27322 12.3972 7.82338 13.0188 7.5147L12.4469 6.36316ZM10.3923 8.042C9.51579 9.16721 9.26172 10.4073 9.15852 11.5919C9.10779 12.1741 9.09145 12.781 9.06321 13.3372C9.03425 13.9075 8.99215 14.4518 8.89333 14.9792L10.157 15.216C10.2722 14.6017 10.3175 13.9881 10.3473 13.4024C10.3777 12.8026 10.3913 12.2554 10.4394 11.7034C10.5338 10.6197 10.7529 9.67124 11.4066 8.83209L10.3923 8.042ZM8.892 14.9865C8.66218 16.2965 8.14918 17.5318 7.39426 18.5979L8.44355 19.3409C9.31017 18.117 9.89616 16.7033 10.1584 15.2087L8.892 14.9865ZM7.41541 18.5697C7.23143 18.8014 7.11719 19.0805 7.08264 19.3729L8.35948 19.5238C8.36656 19.4638 8.38966 19.4103 8.42241 19.3691L7.41541 18.5697ZM7.08264 19.3729C7.04809 19.6653 7.09416 19.9629 7.21702 20.2312L8.38594 19.6957C8.36215 19.6438 8.35239 19.5838 8.35948 19.5238L7.08264 19.3729ZM7.21702 20.2312C7.33996 20.4995 7.53596 20.7299 7.78578 20.8913L8.48359 19.8114C8.44494 19.7865 8.40965 19.7475 8.38594 19.6957L7.21702 20.2312ZM7.78578 20.8913C8.03594 21.053 8.32813 21.1376 8.62727 21.1319L8.60288 19.8464C8.56318 19.8472 8.52189 19.8362 8.48359 19.8114L7.78578 20.8913ZM8.61508 21.132H21.3892V19.8463H8.61508V21.132ZM15.6468 6.4005V5.14282H14.3611V6.4005H15.6468ZM16.1922 22.0786C16.1925 22.2507 16.1604 22.4204 16.0983 22.578L17.2944 23.0495C17.4164 22.74 17.4785 22.4094 17.4779 22.0762L16.1922 22.0786ZM16.0983 22.578C16.0362 22.7354 15.9458 22.8766 15.8337 22.9941L16.7638 23.8818C16.9926 23.642 17.1724 23.359 17.2944 23.0495L16.0983 22.578ZM15.8337 22.9941C15.7216 23.1116 15.5901 23.203 15.4477 23.2647L15.9584 24.4446C16.2615 24.3134 16.535 24.1216 16.7638 23.8818L15.8337 22.9941ZM15.4477 23.2647C15.3053 23.3263 15.1538 23.3574 15.0017 23.3571L14.999 24.6428C15.329 24.6435 15.6551 24.5758 15.9584 24.4446L15.4477 23.2647ZM15.0003 23.3571C14.8484 23.3571 14.6972 23.3257 14.555 23.264L14.0425 24.4431C14.3452 24.5747 14.6707 24.6428 15.0003 24.6428L15.0003 23.3571ZM14.555 23.264C14.4128 23.2021 14.2816 23.1107 14.1698 22.9933L13.2388 23.88C13.4671 24.1197 13.7399 24.3116 14.0425 24.4431L14.555 23.264ZM14.1698 22.9933C14.0579 22.8758 13.9677 22.7347 13.9058 22.5774L12.7094 23.0483C12.8311 23.3574 13.0105 23.6403 13.2388 23.88L14.1698 22.9933ZM13.9058 22.5774C13.8438 22.42 13.8118 22.2504 13.8121 22.0786L12.5264 22.0762C12.5258 22.4089 12.5877 22.7392 12.7094 23.0483L13.9058 22.5774Z" fill="#093030"/>
</svg>
