<svg width="26" height="26" viewBox="0 0 26 26" fill="none" xmlns="http://www.w3.org/2000/svg">
<rect width="26" height="26" rx="8" fill="#DFF7E2"/>
<path d="M18.8896 7.13079L10.7929 15.2092M10.7929 15.2063L12.5644 20.496C12.6027 20.6474 12.6929 20.7805 12.8191 20.8723C12.9454 20.9641 13.0998 21.0088 13.2556 20.9986C13.3588 20.9892 13.4575 20.9514 13.5405 20.8894C13.6236 20.8273 13.6878 20.7435 13.726 20.6471L18.9709 7.55782C19.0005 7.48391 19.0077 7.40294 18.9917 7.32495C18.9757 7.24697 18.9372 7.1754 18.8809 7.11911C18.8246 7.06282 18.7531 7.0243 18.6751 7.0083C18.5972 6.9923 18.5162 6.99953 18.4423 7.02911L5.35638 12.2753C4.9411 12.4409 4.87722 12.9899 5.22571 13.3501C5.24604 13.3559 10.7929 15.2063 10.7929 15.2063Z" stroke="#093030" stroke-linecap="round" stroke-linejoin="round"/>
</svg>
